<svg width="780" height="553" viewBox="0 0 780 553" fill="none" xmlns="http://www.w3.org/2000/svg">
<g filter="url(#filter0_d_32_33)">
<rect x="240" y="76.5" width="300" height="400" rx="16" fill="white" fill-opacity="0.9" shape-rendering="crispEdges"/>
<rect x="256" y="100.5" width="180" height="10" rx="5" fill="#888888" fill-opacity="0.9"/>
<rect x="256" y="126.5" width="120" height="10" rx="5" fill="#888888" fill-opacity="0.9"/>
<rect x="256" y="152.5" width="200" height="10" rx="5" fill="#888888" fill-opacity="0.9"/>
<rect x="256" y="178.5" width="180" height="10" rx="5" fill="#888888" fill-opacity="0.9"/>
<rect x="256" y="204.5" width="240" height="10" rx="5" fill="#888888" fill-opacity="0.9"/>
<rect x="256" y="230.5" width="100" height="10" rx="5" fill="#888888" fill-opacity="0.9"/>
<rect x="256" y="256.5" width="110" height="10" rx="5" fill="#888888" fill-opacity="0.9"/>
<rect x="256" y="282.5" width="150" height="10" rx="5" fill="#888888" fill-opacity="0.9"/>
<rect x="256" y="308.5" width="180" height="10" rx="5" fill="#888888" fill-opacity="0.9"/>
<rect x="256" y="334.5" width="220" height="10" rx="5" fill="#888888" fill-opacity="0.9"/>
<path d="M308.246 438.5H305.604C305.447 437.74 305.174 437.072 304.783 436.497C304.4 435.922 303.931 435.439 303.377 435.048C302.83 434.651 302.223 434.352 301.555 434.153C300.888 433.955 300.192 433.855 299.467 433.855C298.146 433.855 296.95 434.189 295.877 434.857C294.812 435.524 293.963 436.508 293.331 437.808C292.706 439.107 292.393 440.702 292.393 442.591C292.393 444.48 292.706 446.075 293.331 447.374C293.963 448.674 294.812 449.658 295.877 450.325C296.95 450.993 298.146 451.327 299.467 451.327C300.192 451.327 300.888 451.227 301.555 451.028C302.223 450.83 302.83 450.535 303.377 450.144C303.931 449.746 304.4 449.26 304.783 448.685C305.174 448.102 305.447 447.435 305.604 446.682H308.246C308.047 447.797 307.685 448.795 307.159 449.675C306.634 450.556 305.98 451.305 305.199 451.923C304.418 452.534 303.54 452.999 302.567 453.319C301.602 453.638 300.568 453.798 299.467 453.798C297.607 453.798 295.952 453.344 294.503 452.435C293.054 451.526 291.914 450.233 291.083 448.557C290.252 446.881 289.837 444.892 289.837 442.591C289.837 440.29 290.252 438.301 291.083 436.625C291.914 434.949 293.054 433.656 294.503 432.747C295.952 431.838 297.607 431.384 299.467 431.384C300.568 431.384 301.602 431.543 302.567 431.863C303.54 432.183 304.418 432.651 305.199 433.269C305.98 433.88 306.634 434.626 307.159 435.506C307.685 436.38 308.047 437.378 308.246 438.5ZM330.924 442.591C330.924 444.892 330.509 446.881 329.678 448.557C328.847 450.233 327.707 451.526 326.258 452.435C324.809 453.344 323.154 453.798 321.294 453.798C319.433 453.798 317.778 453.344 316.329 452.435C314.88 451.526 313.74 450.233 312.909 448.557C312.078 446.881 311.663 444.892 311.663 442.591C311.663 440.29 312.078 438.301 312.909 436.625C313.74 434.949 314.88 433.656 316.329 432.747C317.778 431.838 319.433 431.384 321.294 431.384C323.154 431.384 324.809 431.838 326.258 432.747C327.707 433.656 328.847 434.949 329.678 436.625C330.509 438.301 330.924 440.29 330.924 442.591ZM328.367 442.591C328.367 440.702 328.051 439.107 327.419 437.808C326.794 436.508 325.945 435.524 324.873 434.857C323.808 434.189 322.615 433.855 321.294 433.855C319.972 433.855 318.776 434.189 317.703 434.857C316.638 435.524 315.789 436.508 315.157 437.808C314.532 439.107 314.22 440.702 314.22 442.591C314.22 444.48 314.532 446.075 315.157 447.374C315.789 448.674 316.638 449.658 317.703 450.325C318.776 450.993 319.972 451.327 321.294 451.327C322.615 451.327 323.808 450.993 324.873 450.325C325.945 449.658 326.794 448.674 327.419 447.374C328.051 446.075 328.367 444.48 328.367 442.591ZM352.668 431.682V453.5H350.111L338.222 436.369H338.009V453.5H335.367V431.682H337.923L349.855 448.855H350.068V431.682H352.668ZM357.955 453.5V431.682H371.037V434.026H360.597V441.398H370.057V443.741H360.597V453.5H357.955ZM378.204 431.682V453.5H375.562V431.682H378.204ZM398.416 438.5C398.182 437.783 397.873 437.14 397.489 436.572C397.113 435.996 396.662 435.506 396.136 435.102C395.618 434.697 395.028 434.388 394.368 434.175C393.707 433.962 392.983 433.855 392.195 433.855C390.902 433.855 389.727 434.189 388.668 434.857C387.61 435.524 386.768 436.508 386.143 437.808C385.518 439.107 385.206 440.702 385.206 442.591C385.206 444.48 385.522 446.075 386.154 447.374C386.786 448.674 387.642 449.658 388.722 450.325C389.801 450.993 391.016 451.327 392.365 451.327C393.615 451.327 394.716 451.06 395.668 450.528C396.626 449.988 397.372 449.228 397.905 448.248C398.445 447.261 398.714 446.099 398.714 444.764L399.524 444.935H392.962V442.591H401.271V444.935C401.271 446.732 400.888 448.294 400.121 449.622C399.361 450.95 398.31 451.98 396.967 452.712C395.632 453.436 394.098 453.798 392.365 453.798C390.433 453.798 388.736 453.344 387.273 452.435C385.817 451.526 384.68 450.233 383.864 448.557C383.054 446.881 382.649 444.892 382.649 442.591C382.649 440.865 382.88 439.313 383.342 437.935C383.81 436.55 384.471 435.371 385.323 434.398C386.175 433.425 387.184 432.68 388.349 432.161C389.513 431.643 390.795 431.384 392.195 431.384C393.345 431.384 394.418 431.558 395.412 431.906C396.413 432.246 397.305 432.733 398.086 433.365C398.874 433.99 399.531 434.739 400.057 435.613C400.582 436.479 400.945 437.442 401.143 438.5H398.416ZM407.288 453.67C406.762 453.67 406.311 453.482 405.935 453.106C405.558 452.729 405.37 452.278 405.37 451.753C405.37 451.227 405.558 450.776 405.935 450.4C406.311 450.023 406.762 449.835 407.288 449.835C407.813 449.835 408.264 450.023 408.641 450.4C409.017 450.776 409.205 451.227 409.205 451.753C409.205 452.101 409.117 452.42 408.939 452.712C408.769 453.003 408.538 453.237 408.247 453.415C407.963 453.585 407.643 453.67 407.288 453.67ZM411.158 431.682H414.183L420.234 441.866H420.49L426.541 431.682H429.567L421.683 444.509V453.5H419.041V444.509L411.158 431.682ZM431.652 453.5H428.882L436.894 431.682H439.621L447.632 453.5H444.862L438.343 435.134H438.172L431.652 453.5ZM432.675 444.977H443.84V447.321H432.675V444.977ZM451.031 431.682H454.184L461.599 449.793H461.855L469.269 431.682H472.423V453.5H469.951V436.923H469.738L462.92 453.5H460.534L453.715 436.923H453.502V453.5H451.031V431.682ZM477.72 453.5V431.682H480.362V451.156H490.504V453.5H477.72Z" fill="#888888" fill-opacity="0.8"/>
</g>
<defs>
<filter id="filter0_d_32_33" x="204" y="52.5" width="372" height="472" filterUnits="userSpaceOnUse" color-interpolation-filters="sRGB">
<feFlood flood-opacity="0" result="BackgroundImageFix"/>
<feColorMatrix in="SourceAlpha" type="matrix" values="0 0 0 0 0 0 0 0 0 0 0 0 0 0 0 0 0 0 127 0" result="hardAlpha"/>
<feOffset dy="12"/>
<feGaussianBlur stdDeviation="18"/>
<feComposite in2="hardAlpha" operator="out"/>
<feColorMatrix type="matrix" values="0 0 0 0 0 0 0 0 0 0 0 0 0 0 0 0 0 0 0.2 0"/>
<feBlend mode="normal" in2="BackgroundImageFix" result="effect1_dropShadow_32_33"/>
<feBlend mode="normal" in="SourceGraphic" in2="effect1_dropShadow_32_33" result="shape"/>
</filter>
</defs>
</svg>
